# xmcd
#
# Track frame offsets: 
#        150
#        14906
#        34467
#        50213
#        71166
#        89594
#        104608
#        118877
#        133883
#        151794
#        167385
#        188684
#        206339
#
# Disc length: 2798 seconds
#
# Revision: 3
# Processed by: cddbd v1.5.2PL0 Copyright (c) Steve Scherf et al.
# Submitted via: ExactAudioCopy v1.0b1
#
DISCID=c30aec0d
DTITLE=Виктор Петлюра - Север
DYEAR=2004
DGENRE=Chanson
TTITLE0=Север
TTITLE1=В городском саду
TTITLE2=Здравствуй, мама
TTITLE3=Ветер осенний
TTITLE4=Родителям
TTITLE5=Весна
TTITLE6=Дембеля
TTITLE7=Иркутский тракт
TTITLE8=Солдат
TTITLE9=Журавли
TTITLE10=Алёнушка
TTITLE11=Ветер
TTITLE12=(Благодарность)
EXTD=
EXTT0=
EXTT1=
EXTT2=
EXTT3=
EXTT4=
EXTT5=
EXTT6=
EXTT7=
EXTT8=
EXTT9=
EXTT10=
EXTT11=
EXTT12=
PLAYORDER=
